<svg id="Layer_1" data-name="Layer 1" xmlns="http://www.w3.org/2000/svg" viewBox="0 0 280 300"><defs><style>.cls-1{fill:#0f0d0e;}</style></defs><title>github logo</title><path class="cls-1" d="M83.48,146.42H68a.73.73,0,0,0-.73.72v7.56a.73.73,0,0,0,.73.72h6v9.39a18.25,18.25,0,0,1-5.09.46c-4.42,0-10.58-1.62-10.58-15.18s6.42-15.35,12.45-15.35a24.19,24.19,0,0,1,8.89,1.37.73.73,0,0,0,.87-.71l1.72-7.3a.69.69,0,0,0-.27-.57c-.58-.41-4.13-2.39-13.08-2.39-10.32,0-20.9,4.39-20.9,25.48s12.12,24.24,22.32,24.24c8.46,0,13.58-3.61,13.58-3.61a.61.61,0,0,0,.24-.55V147.14A.72.72,0,0,0,83.48,146.42Z"/><path class="cls-1" d="M163.11,127.66a.72.72,0,0,0-.72-.72h-8.7a.72.72,0,0,0-.72.72v16.82H139.41V127.66a.72.72,0,0,0-.72-.72H130a.72.72,0,0,0-.72.72v45.53a.73.73,0,0,0,.72.73h8.7a.73.73,0,0,0,.72-.73V153.72H153l0,19.47a.73.73,0,0,0,.72.73h8.72a.73.73,0,0,0,.72-.73Z"/><path class="cls-1" d="M99.89,133.64a5.61,5.61,0,1,0-5.61,5.67A5.64,5.64,0,0,0,99.89,133.64Z"/><path class="cls-1" d="M99.27,163.59v-21a.72.72,0,0,0-.72-.72H89.88a.82.82,0,0,0-.75.81v30.1c0,.89.55,1.15,1.26,1.15H98.2c.86,0,1.07-.42,1.07-1.16Z"/><path class="cls-1" d="M196.17,141.92h-8.63a.72.72,0,0,0-.72.72V165a9.76,9.76,0,0,1-5.31,1.6c-3.11,0-3.93-1.41-3.93-4.46V142.64a.72.72,0,0,0-.72-.72H168.1a.72.72,0,0,0-.72.72v20.94c0,9.06,5,11.27,12,11.27a20.26,20.26,0,0,0,10.29-3.14,18.11,18.11,0,0,0,.32,1.85.75.75,0,0,0,.63.4l5.58,0a.73.73,0,0,0,.72-.73V142.64A.72.72,0,0,0,196.17,141.92Z"/><path class="cls-1" d="M219.77,140.89a16.24,16.24,0,0,0-8.24,2.19V127.66a.72.72,0,0,0-.72-.72h-8.72a.72.72,0,0,0-.72.72v45.53a.73.73,0,0,0,.72.73h6a.71.71,0,0,0,.63-.39,14.19,14.19,0,0,0,.37-2.1s3.57,3.38,10.32,3.38c7.93,0,12.48-4,12.48-18.05S224.68,140.89,219.77,140.89Zm-3.41,25.65a10.32,10.32,0,0,1-5-1.45V150.68a11.46,11.46,0,0,1,4.46-1.45c3.11-.28,6.11.66,6.11,8.08C221.91,165.13,220.55,166.67,216.36,166.54Z"/><path class="cls-1" d="M124.28,141.84h-6.53v-8.62c0-.33-.17-.49-.54-.49h-8.9c-.34,0-.53.15-.53.49v8.91s-4.46,1.07-4.76,1.16a.72.72,0,0,0-.52.69v5.6a.73.73,0,0,0,.72.73h4.56v13.47c0,10,7,11,11.75,11a19.68,19.68,0,0,0,5.18-.85.66.66,0,0,0,.41-.65V167.1a.74.74,0,0,0-.72-.73c-.38,0-1.36.16-2.36.16-3.2,0-4.29-1.49-4.29-3.42v-12.8h6.53a.73.73,0,0,0,.72-.73v-7A.73.73,0,0,0,124.28,141.84Z"/></svg>